<svg xmlns="http://www.w3.org/2000/svg" viewBox="0 0 213 214" width="213" height="214">
	<style>
		tspan { white-space:pre }
		.shp0 { fill: #ff1e38 } 
	</style>
	<g id="Close">
		<path id="Layer" fill-rule="evenodd" class="shp0" d="M131.8 107.49L207.74 31.55C214.73 24.56 214.73 13.23 207.74 6.24C200.75 -0.75 189.42 -0.75 182.43 6.24L106.49 82.18L30.55 6.24C23.56 -0.75 12.23 -0.75 5.24 6.24C-1.75 13.23 -1.75 24.56 5.24 31.55L81.18 107.49L5.24 183.43C-1.75 190.42 -1.75 201.75 5.24 208.74C12.23 215.73 23.56 215.73 30.55 208.74L106.49 132.8L182.43 208.74C189.42 215.73 200.75 215.73 207.74 208.74C214.73 201.75 214.73 190.42 207.74 183.43L131.8 107.49Z" />
	</g>
</svg>